<svg width="40" height="40" viewBox="0 0 40 40" fill="none" xmlns="http://www.w3.org/2000/svg">
<path d="M30.2101 23.7815C27.4298 23.7815 25.168 26.0433 25.168 28.8235C25.168 31.6038 27.4298 33.8656 30.2101 33.8656C32.9908 33.8656 35.2521 31.6038 35.2521 28.8235C35.2521 26.0433 32.9903 23.7815 30.2101 23.7815ZM30.2101 31.3445C28.8197 31.3445 27.689 30.2138 27.689 28.8235C27.689 27.4332 28.8197 26.3025 30.2101 26.3025C31.6004 26.3025 32.7311 27.4332 32.7311 28.8235C32.7311 30.2139 31.6004 31.3445 30.2101 31.3445Z" fill="#141414"/>
<path d="M12.9832 23.7815C10.203 23.7815 7.94116 26.0433 7.94116 28.8235C7.94116 31.6038 10.203 33.8656 12.9832 33.8656C15.7634 33.8656 18.0252 31.6038 18.0252 28.8235C18.0252 26.0433 15.7634 23.7815 12.9832 23.7815ZM12.9832 31.3445C11.5929 31.3445 10.4622 30.2138 10.4622 28.8235C10.4622 27.4332 11.5929 26.3025 12.9832 26.3025C14.3731 26.3025 15.5042 27.4332 15.5042 28.8235C15.5042 30.2139 14.3735 31.3445 12.9832 31.3445Z" fill="#141414"/>
<path d="M33.6055 9.34966C33.3912 8.92403 32.9555 8.65552 32.479 8.65552H25.8403V11.1765H31.7017L35.134 18.0034L37.387 16.8706L33.6055 9.34966Z" fill="#141414"/>
<path d="M26.4286 27.605H16.8908V30.126H26.4286V27.605Z" fill="#141414"/>
<path d="M9.20163 27.605H4.83194C4.13569 27.605 3.57147 28.1693 3.57147 28.8654C3.57147 29.5617 4.13577 30.1259 4.83194 30.1259H9.20171C9.89796 30.1259 10.4622 29.5616 10.4622 28.8654C10.4622 28.1692 9.89788 27.605 9.20163 27.605Z" fill="#141414"/>
<path d="M39.7353 19.8992L37.2559 16.7059C37.0177 16.3983 36.6501 16.2185 36.2605 16.2185H27.1008V7.39499C27.1008 6.69874 26.5366 6.13452 25.8404 6.13452H4.83194C4.13569 6.13452 3.57147 6.69882 3.57147 7.39499C3.57147 8.09116 4.13577 8.65546 4.83194 8.65546H24.5798V17.479C24.5798 18.1752 25.1441 18.7394 25.8403 18.7394H35.6433L37.479 21.1041V27.605H33.9916C33.2953 27.605 32.7311 28.1693 32.7311 28.8655C32.7311 29.5617 33.2954 30.1259 33.9916 30.1259H38.7394C39.4357 30.1259 39.9999 29.5616 40 28.8655V20.6723C40 20.3925 39.9067 20.1202 39.7353 19.8992Z" fill="#141414"/>
<path d="M9.11767 21.2185H3.31931C2.62306 21.2185 2.05884 21.7828 2.05884 22.479C2.05884 23.1752 2.62313 23.7394 3.31931 23.7394H9.11759C9.81384 23.7394 10.3781 23.1751 10.3781 22.479C10.3781 21.7828 9.81384 21.2185 9.11767 21.2185Z" fill="#141414"/>
<path d="M12.0168 16.2605H1.26047C0.564297 16.2605 0 16.8248 0 17.521C0 18.2173 0.564297 18.7815 1.26047 18.7815H12.0168C12.713 18.7815 13.2773 18.2172 13.2773 17.521C13.2773 16.8249 12.713 16.2605 12.0168 16.2605Z" fill="#141414"/>
<path d="M14.0756 11.3025H3.31931C2.62306 11.3025 2.05884 11.8668 2.05884 12.563C2.05884 13.2592 2.62313 13.8234 3.31931 13.8234H14.0756C14.7719 13.8234 15.3361 13.2591 15.3361 12.563C15.3362 11.8668 14.7719 11.3025 14.0756 11.3025Z" fill="#141414"/>
</svg>
