<svg width="40" height="40" viewBox="0 0 40 40" fill="none" xmlns="http://www.w3.org/2000/svg">
<path d="M13.1141 20.1904C9.64611 20.1904 6.82501 17.3693 6.82501 13.9014C6.82501 10.4334 9.64611 7.6123 13.1141 7.6123C16.582 7.6123 19.4031 10.4334 19.4031 13.9014C19.4031 17.3693 16.582 20.1904 13.1141 20.1904ZM13.1141 9.82715C10.8672 9.82715 9.03907 11.6553 9.03907 13.9021C9.03907 16.149 10.8672 17.9771 13.1141 17.9771C15.3609 17.9771 17.1891 16.149 17.1891 13.9021C17.1891 11.6553 15.3609 9.82715 13.1141 9.82715Z" fill="#141414"/>
<path d="M23.9055 33.8413H2.32344C1.04219 33.8413 0 32.7991 0 31.5179V27.4726C0 23.603 3.14844 20.4546 7.01797 20.4546C7.48672 20.4546 7.93594 20.5944 8.31797 20.8577C9.73125 21.8335 11.3898 22.3499 13.1141 22.3499C14.8383 22.3499 16.4969 21.8343 17.9102 20.8577C18.2922 20.5937 18.7414 20.4546 19.2102 20.4546H19.2109C23.0805 20.4546 26.2289 23.603 26.2289 27.4726V31.5179C26.2281 32.7991 25.1859 33.8413 23.9055 33.8413ZM7.01797 22.6687C4.36953 22.6687 2.21406 24.8233 2.21406 27.4726V31.5179C2.21406 31.578 2.26328 31.6272 2.32344 31.6272H23.9055C23.9656 31.6272 24.0148 31.578 24.0148 31.5179V27.4726C24.0148 24.8241 21.8602 22.6687 19.2109 22.6687H19.2102C19.1938 22.6687 19.1781 22.6726 19.168 22.6796C17.3836 23.9124 15.2898 24.564 13.1141 24.564C10.9375 24.564 8.84375 23.9124 7.05938 22.6796C7.04922 22.6726 7.03438 22.6687 7.01797 22.6687Z" fill="#141414"/>
<path d="M28.375 17.4499C25.2617 17.4499 22.7289 14.9171 22.7289 11.8038C22.7289 8.69053 25.2617 6.15771 28.375 6.15771C31.4883 6.15771 34.0211 8.69053 34.0211 11.8038C34.0211 14.9171 31.4883 17.4499 28.375 17.4499ZM28.375 8.37178C26.4828 8.37178 24.9429 9.91162 24.9429 11.8038C24.9429 13.696 26.4828 15.2358 28.375 15.2358C30.2672 15.2358 31.807 13.696 31.807 11.8038C31.807 9.91162 30.2672 8.37178 28.375 8.37178Z" fill="#141414"/>
<path d="M37.8281 29.4078H29.7734C29.1617 29.4078 28.6664 28.9125 28.6664 28.3007C28.6664 27.689 29.1617 27.1937 29.7734 27.1937H37.7867V23.6906C37.7867 21.4531 35.971 19.6312 33.7359 19.621C32.1531 20.7078 30.3015 21.2812 28.3757 21.2812C28.0929 21.2812 27.8093 21.2687 27.5328 21.2437C26.9242 21.189 26.4742 20.6507 26.5289 20.0421C26.5835 19.4335 27.1218 18.9835 27.7304 19.0382C27.9414 19.057 28.1578 19.0671 28.3749 19.0671C29.8578 19.0671 31.2835 18.6234 32.4976 17.7843C32.8539 17.5375 33.2749 17.407 33.7148 17.407C37.1804 17.407 39.9992 20.2257 39.9992 23.6906V27.2343C39.9999 28.4328 39.0257 29.4078 37.8281 29.4078Z" fill="#141414"/>
</svg>
