<svg width="55" height="35" viewBox="0 0 55 35" fill="none" xmlns="http://www.w3.org/2000/svg">
<g clip-path="url(#clip0_1_1412)">
<path d="M51.2445 0.0129395H3.7555C1.91965 0.0129395 0.431396 1.51623 0.431396 3.37062V31.6162C0.431396 33.4706 1.91965 34.9739 3.7555 34.9739H51.2445C53.0804 34.9739 54.5687 33.4706 54.5687 31.6162V3.37062C54.5687 1.51623 53.0804 0.0129395 51.2445 0.0129395Z" fill="white"/>
<path fill-rule="evenodd" clip-rule="evenodd" d="M14.8697 17.1602L15.1108 16.199C16.037 15.917 17.9274 15.7889 18.2827 16.8013C18.4857 17.3908 17.902 19.8386 17.7878 20.5563L16.887 20.5691C16.684 20.3128 16.849 20.787 16.7094 20.159C15.8467 20.9408 14.007 20.8126 14.1466 19.2363C14.2861 17.6728 15.631 17.8778 17.09 17.6472C17.0647 16.6475 15.8213 16.9167 14.857 17.1473L14.8697 17.1602ZM21.6575 17.0064C20.8328 17.0064 20.706 16.827 19.9828 17.1473C20.0716 18.0572 20.541 17.6984 21.1881 18.1341C22.4188 18.9543 21.0993 21.4918 18.1685 20.4025L18.3334 19.4798C19.1581 19.6464 19.5768 19.813 20.2111 19.4541C20.3634 18.1598 18.0923 19.0056 18.7267 16.9295C19.0693 15.8017 20.5791 15.9555 21.8224 16.0708L21.6448 17.0064H21.6575ZM9.02083 15.0456L10.962 15.1097L11.165 18.1854L12.2181 15.7248C12.5733 14.8405 12.3322 15.0328 14.5652 15.0584L13.5629 20.5563L12.4718 20.5435L13.0681 16.5963L11.4568 20.5691L10.15 20.5307C10.1119 19.7617 10.0485 17.0576 9.84551 16.545L9.18577 20.5435L8.0439 20.5307L9.02083 15.0456ZM27.5318 26.7206L28.0647 26.0798C26.9989 25.9388 26.8086 26.2464 26.3265 25.3749L28.7752 25.3493C28.9274 25.093 29.1812 24.8495 29.308 24.5548C26.5168 24.3625 25.7302 25.0802 25.2861 23.8499H29.7648L30.2596 23.0681L24.7279 23.0425L24.4741 22.3889L30.4372 22.3633C30.7798 22.1711 30.7798 21.9532 30.8686 21.5559L25.2227 21.5431C24.2077 21.5559 24.1442 21.7866 23.9539 20.851H31.0589L31.2873 20.0565L29.2065 20.0308L29.105 20.5691L27.9124 20.5178L28.661 16.0452L29.7901 16.199C29.7901 16.2246 29.8155 16.3143 29.8155 16.3528C29.8155 16.3784 29.8282 16.4169 29.8282 16.4297L29.8916 16.6603C30.2088 16.2759 30.4118 15.9939 31.1477 16.0196L30.7671 17.0576C30.5514 17.3396 29.917 17.0192 29.6506 17.7881L30.894 17.8394C31.0335 17.032 31.1858 16.7885 31.4141 16.1349L31.4268 15.7504L23.6494 15.7633L23.6241 16.0452C24.0427 16.0452 24.0301 15.9683 24.2711 16.1734L24.1569 16.9295C23.3703 17.1217 23.3957 16.6475 23.3196 17.6856C23.4337 17.8778 23.2942 17.7753 23.5352 17.8394L24.0301 17.8522C24.8294 15.225 27.2146 15.8017 27.7602 16.6219C28.052 17.0576 28.3438 18.493 27.6206 18.6083L25.1973 18.634C25.3115 19.9283 26.7832 19.6592 27.7348 19.3388C27.6967 19.8771 27.7348 20.3128 27.24 20.4922C26.8467 20.6332 26.022 20.5947 25.5906 20.4922C24.5249 20.2487 24.0681 19.7105 23.992 18.5442L23.5352 18.5314C23.1166 18.3392 23.4464 18.5314 23.2307 18.006C23.0531 19.0825 22.571 19.7745 23.8905 19.6208C23.8144 20.2615 23.9032 20.4794 23.2054 20.5563C21.1754 20.7998 21.8351 19.4285 22.165 17.5959C22.6852 14.6739 22.2792 15.0328 23.7509 15.0584L31.3126 15.0712L31.1604 14.2767L23.8524 14.251L23.992 13.6102L30.9066 13.5718C30.729 12.4825 30.691 12.7516 28.1788 12.7516C26.8974 12.7516 25.6287 12.7516 24.3472 12.7516C24.6137 11.8161 24.4741 12.0724 26.9609 12.0724H30.323L29.9678 11.265L25.0958 11.2522L25.4257 10.5858L29.4983 10.5601C28.9782 9.48362 29.0035 9.7912 26.1235 9.73993C26.4914 8.81721 27.1385 9.04789 28.2677 9.04789C27.9505 8.53527 27.7221 8.57372 27.5318 8.13799C27.0624 7.89449 26.6437 7.45876 26.1742 7.12556C22.5837 4.56244 17.7117 4.29331 13.804 6.21565C10.2896 7.93294 6.83859 11.9058 6.87665 17.4037C6.9274 25.2596 13.7532 30.9882 21.4799 29.6554C25.1085 29.0274 26.022 27.5408 27.5191 26.7078L27.5318 26.7206Z" fill="#E41D2C"/>
<path fill-rule="evenodd" clip-rule="evenodd" d="M35.8167 16.1605C39.7498 15.3531 39.1027 17.3139 38.7855 18.903C38.684 19.3772 38.684 20.3127 38.3161 20.5691C38.2273 20.5691 37.7071 20.5819 37.6563 20.5562C37.3011 20.4153 37.466 20.8382 37.4153 20.1846C36.3495 20.7997 34.6621 20.9407 34.8651 19.2234C35.03 17.8521 36.4003 17.6343 37.7959 17.6984C37.7452 16.6859 36.8317 16.8525 35.5629 17.1729L35.8294 16.1605H35.8167ZM39.699 16.0452L40.7521 16.058C40.7648 16.0836 40.7775 16.122 40.7775 16.1477L40.9424 16.6219C41.1327 16.3271 41.4879 16.0708 42.0462 16.058L41.8939 16.9679L41.3738 17.1729C40.3334 17.5189 40.3968 18.8389 40.1177 20.5691H38.9378L39.699 16.0452ZM45.2942 15.0712H46.3726L45.4464 20.5819C44.2411 20.5947 44.5329 20.6588 44.1523 20.1974C43.3657 21.3764 41.0058 20.2871 41.729 17.8521C42.2619 16.0323 44.0635 15.5453 44.9516 16.6219L45.3069 15.0584L45.2942 15.0712ZM27.5445 8.15075C27.7348 8.58648 27.9758 8.54803 28.2803 9.06066C27.1512 9.06066 26.5041 8.81716 26.1362 9.7527C29.0162 9.80396 28.9908 9.49639 29.511 10.5729L25.4383 10.5985L25.1085 11.2649L29.9804 11.2778L30.3357 12.0851C29.2192 12.0851 28.1027 12.0851 26.9735 12.0851C24.4995 12.0851 24.6264 11.8416 24.3599 12.7644H28.1915C30.7036 12.7644 30.7417 12.4952 30.9193 13.5846L24.0047 13.623L23.8651 14.2638L31.1731 14.2894L31.3253 15.084L23.7636 15.0712L23.6621 15.7888L31.4395 15.776L31.4268 16.1605C32.0104 15.5966 31.9089 15.3018 33.0001 14.9815C33.9009 14.7251 34.4718 14.9174 35.3599 15.1096L35.1696 16.2886C33.6471 15.8273 32.6575 15.9426 32.3022 17.5318C31.9089 19.2362 33.2411 19.877 34.6494 19.1978C34.5225 20.4409 34.3195 20.7485 32.8732 20.5562C31.8709 20.4281 31.5664 19.9411 31.1223 19.3388H29.308L29.2065 20.0436L31.2873 20.0692L31.0589 20.8638H23.9539C24.1442 21.7993 24.2077 21.5687 25.2227 21.5559L30.8686 21.5687C30.7671 21.9531 30.7798 22.1838 30.4372 22.376L24.4741 22.4017L24.7279 23.0553L30.2596 23.0809L29.7648 23.8627H25.2861C25.7302 25.0801 26.5168 24.3753 29.308 24.5675C29.1811 24.8623 28.9274 25.1058 28.7751 25.3621L26.3265 25.3877C26.7959 26.2464 26.9989 25.9516 28.0646 26.0926L27.5318 26.7333C29.3461 28.079 30.7544 29.2068 33.6852 29.7194C36.3495 30.1807 39.1281 29.6681 41.2723 28.6044C50.5595 23.978 50.3057 10.6498 41.1961 6.24123C37.9228 4.66491 33.5837 4.52394 30.1961 6.31812C28.5595 7.17677 28.1661 7.79191 27.5571 8.16357L27.5445 8.15075Z" fill="#F8B02B"/>
<path fill-rule="evenodd" clip-rule="evenodd" d="M8.04395 20.5435L9.18581 20.5563L9.84556 16.5579C10.0486 17.0705 10.112 19.7746 10.1501 20.5435L11.4569 20.582L13.0682 16.6091L12.4719 20.5563L13.563 20.5691L14.5653 15.0713C12.3323 15.0456 12.5734 14.8534 12.2181 15.7377L11.1651 18.1983L10.9621 15.1225L9.02088 15.0584L8.04395 20.5435Z" fill="#FEFEFE"/>
<path fill-rule="evenodd" clip-rule="evenodd" d="M43.3911 19.5309C42.4396 18.5441 43.2516 16.9037 44.1397 17.1215C45.0151 17.3394 44.8502 19.5052 43.3911 19.5309ZM44.939 16.6217C44.0509 15.5452 42.262 16.0322 41.7164 17.852C40.9932 20.2742 43.3531 21.3763 44.1397 20.1973C44.5203 20.6586 44.2285 20.5817 45.4338 20.5817L46.36 15.071H45.2816L44.9263 16.6345L44.939 16.6217Z" fill="#FEFEFE"/>
<path fill-rule="evenodd" clip-rule="evenodd" d="M36.2227 19.5438C36.0451 18.6851 36.8317 18.3519 37.5802 18.5057C37.6183 19.3772 37.0093 19.8513 36.2227 19.5438ZM35.8167 16.1733L35.5502 17.1857C36.819 16.8781 37.7452 16.7115 37.7832 17.7111C36.3876 17.6471 35.0174 17.8649 34.8524 19.2362C34.6367 20.9535 36.3369 20.8125 37.4026 20.1974C37.4534 20.851 37.2884 20.428 37.6437 20.569C37.6944 20.5946 38.2146 20.5818 38.3034 20.5818C38.684 20.3383 38.684 19.39 38.7728 18.9158C39.1027 17.3139 39.7371 15.3659 35.804 16.1733H35.8167Z" fill="#FEFEFE"/>
<path fill-rule="evenodd" clip-rule="evenodd" d="M16.8871 18.4674C16.9125 18.9031 16.8363 19.2363 16.5572 19.4542C16.3669 19.5951 15.796 19.7617 15.5676 19.5439C14.8571 18.8903 16.1893 18.4546 16.8744 18.4674H16.8871ZM14.8698 17.1602C15.834 16.9295 17.0774 16.6604 17.1028 17.66C15.6437 17.8907 14.2989 17.6856 14.1593 19.2491C14.007 20.8254 15.8467 20.9536 16.7222 20.1718C16.8617 20.7998 16.6968 20.3256 16.8998 20.5819L17.8006 20.5691C17.9148 19.8386 18.4984 17.4037 18.2954 16.8142C17.9401 15.7889 16.0624 15.9171 15.1235 16.2118L14.8825 17.173L14.8698 17.1602Z" fill="#FEFEFE"/>
<path fill-rule="evenodd" clip-rule="evenodd" d="M25.3877 17.8009C25.5526 17.1473 25.8317 16.8781 26.5803 16.9807C26.8467 17.3651 26.8467 17.2498 26.8975 17.8009H25.3877ZM24.0428 17.8649L23.9921 18.557C24.0682 19.7232 24.5376 20.2486 25.5907 20.505C26.0221 20.6075 26.8467 20.6459 27.24 20.505C27.7349 20.3383 27.6968 19.8898 27.7349 19.3515C26.7833 19.6719 25.3116 19.9411 25.1974 18.6467L27.6207 18.6211C28.3439 18.5057 28.052 17.0832 27.7602 16.6346C27.2147 15.8144 24.8294 15.2377 24.0301 17.8649H24.0428Z" fill="#FEFEFE"/>
<path fill-rule="evenodd" clip-rule="evenodd" d="M31.4269 16.1605C31.1985 16.8141 31.0463 17.0576 30.9067 17.865V18.5698L31.1224 19.3516C31.5665 19.9539 31.871 20.4409 32.8733 20.5691C34.3197 20.7613 34.5227 20.4537 34.6495 19.2106C33.2285 19.8898 31.909 19.2491 32.3024 17.5446C32.6703 15.9426 33.6599 15.8401 35.1697 16.3015L35.36 15.1224C34.4719 14.943 33.901 14.7508 33.0002 14.9943C31.909 15.3019 32.0105 15.6094 31.4269 16.1733V16.1605Z" fill="#FEFEFE"/>
<path fill-rule="evenodd" clip-rule="evenodd" d="M21.8224 16.0707C20.5791 15.9682 19.0693 15.8016 18.7267 16.9293C18.0923 19.0055 20.3507 18.1596 20.2111 19.454C19.5641 19.8129 19.1581 19.6463 18.3334 19.4796L18.1685 20.4024C21.0993 21.4917 22.4061 18.967 21.1881 18.134C20.541 17.6983 20.0716 18.0699 19.9828 17.1472C20.7059 16.814 20.8201 17.0062 21.6575 17.0062L21.8351 16.0707H21.8224Z" fill="#FEFEFE"/>
<path fill-rule="evenodd" clip-rule="evenodd" d="M23.2435 18.0188L23.3323 17.7113C23.4084 16.6732 23.383 17.1474 24.1697 16.9552L24.2839 16.199C24.0428 15.994 24.0555 16.0709 23.6368 16.0709L23.6622 15.7889L23.7637 15.0713C22.2919 15.0456 22.6979 14.6868 22.1777 17.6087C21.8479 19.4414 21.1881 20.8126 23.2181 20.5691C23.9032 20.4923 23.8271 20.2744 23.9032 19.6336C22.5964 19.7874 23.0785 19.0954 23.2435 18.0188Z" fill="#FEFEFE"/>
<path fill-rule="evenodd" clip-rule="evenodd" d="M29.2066 20.0564L29.3081 19.3515L29.435 18.5826L29.6633 17.8136C29.9425 17.0447 30.5768 17.3651 30.7798 17.0831L31.1605 16.0451C30.4119 16.0194 30.2089 16.3014 29.9044 16.6859L29.841 16.4552C29.841 16.4424 29.8283 16.4039 29.8283 16.3783C29.8283 16.3526 29.8029 16.2501 29.8029 16.2245L28.6737 16.0707L27.9252 20.5433L29.1178 20.5946L29.2193 20.0564H29.2066Z" fill="#FEFEFE"/>
<path fill-rule="evenodd" clip-rule="evenodd" d="M38.9379 20.5691H40.1178C40.3969 18.839 40.3335 17.519 41.3739 17.1729L41.894 16.9679L42.0463 16.058C41.488 16.0708 41.1328 16.3271 40.9425 16.6219L40.7775 16.1477C40.7649 16.1221 40.7649 16.0836 40.7522 16.058L39.6991 16.0452L38.9379 20.5691Z" fill="#FEFEFE"/>
<path fill-rule="evenodd" clip-rule="evenodd" d="M43.3911 19.5311C44.8628 19.5054 45.0278 17.3396 44.1397 17.1217C43.2389 16.9039 42.4395 18.5443 43.3911 19.5311Z" fill="#F8B02B"/>
<path fill-rule="evenodd" clip-rule="evenodd" d="M16.8871 18.4673C16.2019 18.4545 14.8698 18.8902 15.5803 19.5438C15.8086 19.7489 16.3796 19.5823 16.5699 19.4541C16.849 19.2491 16.9124 18.903 16.8998 18.4673H16.8871Z" fill="#E41D2C"/>
<path fill-rule="evenodd" clip-rule="evenodd" d="M29.308 19.3388L31.1223 19.3516L30.9066 18.5698H29.4349L29.308 19.3388Z" fill="#E41D2C"/>
<path fill-rule="evenodd" clip-rule="evenodd" d="M36.2227 19.544C37.022 19.8387 37.6184 19.3774 37.5803 18.5059C36.819 18.3649 36.0451 18.6982 36.2227 19.544Z" fill="#F8B02B"/>
<path fill-rule="evenodd" clip-rule="evenodd" d="M29.4349 18.57H30.9067V17.8651L29.6633 17.801L29.4349 18.57Z" fill="#F8B02B"/>
<path fill-rule="evenodd" clip-rule="evenodd" d="M25.3876 17.8011H26.8974C26.8593 17.2628 26.8466 17.3654 26.5802 16.9809C25.8316 16.8784 25.5525 17.1475 25.3876 17.8011Z" fill="#E41D2C"/>
<path fill-rule="evenodd" clip-rule="evenodd" d="M23.2434 18.0189C23.4591 18.5443 23.1292 18.3521 23.5479 18.5443L24.0047 18.5571L24.0554 17.8651L23.5606 17.8523C23.3068 17.801 23.4464 17.8907 23.3449 17.6985L23.2561 18.0061L23.2434 18.0189Z" fill="#F8B02B"/>
</g>
<defs>
<clipPath id="clip0_1_1412">
<rect width="55" height="35" fill="white"/>
</clipPath>
</defs>
</svg>
