<svg width="40" height="40" viewBox="0 0 40 40" fill="none" xmlns="http://www.w3.org/2000/svg">
<path d="M34.4678 7.39503L21.8347 0.465096C20.6909 -0.160516 19.2847 -0.145254 18.1567 0.504771L5.46265 7.82532C4.30421 8.49245 3.58521 9.73756 3.58521 11.0736V15.26C3.58521 26.0431 9.83397 35.7135 19.5031 39.8974C19.7932 40.023 20.1879 40.0306 20.4968 39.8975C30.166 35.7135 36.4148 26.0431 36.4148 15.26V10.683C36.4148 9.31397 35.669 8.05421 34.4678 7.39503ZM33.9148 15.26C33.9148 24.859 28.4717 33.4808 20 37.381C11.5283 33.4808 6.0852 24.859 6.0852 15.26V11.0736C6.0852 10.6281 6.32447 10.2136 6.71143 9.99086C6.71143 9.99086 19.3907 2.67953 19.4067 2.67031C19.762 2.46542 20.2615 2.45387 20.6323 2.65748L33.2654 9.5868C33.6658 9.80652 33.9148 10.2264 33.9148 10.683L33.9148 15.26Z" fill="#141414"/>
<path d="M25.3259 14.7827L18.2727 22.5153C18.2727 22.5153 14.6946 18.5556 14.6778 18.5371C13.614 17.3598 11.7281 19.0019 12.8223 20.213C12.8223 20.213 17.33 25.2005 17.3413 25.213C17.811 25.7327 18.6939 25.7654 19.1931 25.2173C19.1931 25.2173 27.1407 16.5039 27.174 16.4674C28.2564 15.2806 26.4185 13.5827 25.3259 14.7827Z" fill="#141414"/>
</svg>
