<svg width="18" height="17" viewBox="0 0 18 17" fill="none" xmlns="http://www.w3.org/2000/svg">
<path d="M8.52447 0.963525C8.67415 0.50287 9.32585 0.50287 9.47553 0.963525L11.1329 6.06434C11.1998 6.27035 11.3918 6.40983 11.6084 6.40983H16.9717C17.4561 6.40983 17.6575 7.02964 17.2656 7.31434L12.9266 10.4668C12.7514 10.5941 12.678 10.8198 12.745 11.0258L14.4023 16.1266C14.552 16.5873 14.0248 16.9704 13.6329 16.6857L9.29389 13.5332C9.11865 13.4059 8.88135 13.4059 8.70611 13.5332L4.3671 16.6857C3.97524 16.9704 3.448 16.5873 3.59768 16.1266L5.25503 11.0258C5.32197 10.8198 5.24864 10.5941 5.07339 10.4668L0.734384 7.31434C0.342527 7.02964 0.543915 6.40983 1.02828 6.40983H6.39159C6.6082 6.40983 6.80018 6.27035 6.86712 6.06434L8.52447 0.963525Z" fill="#FFBB2A"/>
</svg>
